<mxfile host="" modified="2020-05-26T16:52:38.490Z" agent="5.0 (Windows NT 10.0; Win64; x64) AppleWebKit/537.36 (KHTML, like Gecko) Code/1.45.1 Chrome/78.0.3904.130 Electron/7.2.4 Safari/537.36" etag="3PrH-61hWM61kts7iB5O" version="13.1.3">
    <diagram id="6hGFLwfOUW9BJ-s0fimq" name="Page-1">
        <mxGraphModel dx="3120" dy="1318" grid="1" gridSize="13" guides="1" tooltips="1" connect="1" arrows="1" fold="1" page="1" pageScale="1" pageWidth="827" pageHeight="1169" math="0" shadow="0">
            <root>
                <mxCell id="0"/>
                <mxCell id="1" parent="0"/>
                <mxCell id="5" value="" style="edgeStyle=orthogonalEdgeStyle;rounded=0;orthogonalLoop=1;jettySize=auto;html=1;exitX=0.5;exitY=1;exitDx=0;exitDy=0;fontSize=23;endArrow=none;endFill=0;" edge="1" parent="1" source="3" target="4">
                    <mxGeometry relative="1" as="geometry"/>
                </mxCell>
                <mxCell id="9" value="" style="edgeStyle=orthogonalEdgeStyle;rounded=0;orthogonalLoop=1;jettySize=auto;html=1;exitX=0.5;exitY=1;exitDx=0;exitDy=0;fontSize=23;endArrow=none;endFill=0;" edge="1" parent="1" source="3" target="8">
                    <mxGeometry relative="1" as="geometry"/>
                </mxCell>
                <mxCell id="18" style="edgeStyle=orthogonalEdgeStyle;rounded=0;orthogonalLoop=1;jettySize=auto;html=1;exitX=0.5;exitY=1;exitDx=0;exitDy=0;entryX=0.5;entryY=0;entryDx=0;entryDy=0;fontSize=23;endArrow=none;endFill=0;" edge="1" parent="1" source="3" target="16">
                    <mxGeometry relative="1" as="geometry"/>
                </mxCell>
                <mxCell id="53" style="edgeStyle=orthogonalEdgeStyle;rounded=0;orthogonalLoop=1;jettySize=auto;html=1;exitX=0.5;exitY=1;exitDx=0;exitDy=0;entryX=0.5;entryY=0;entryDx=0;entryDy=0;fontSize=23;endArrow=none;endFill=0;" edge="1" parent="1" source="3" target="10">
                    <mxGeometry relative="1" as="geometry">
                        <Array as="points">
                            <mxPoint x="414" y="120"/>
                            <mxPoint x="1037" y="120"/>
                        </Array>
                    </mxGeometry>
                </mxCell>
                <mxCell id="3" value="音乐社交平台" style="rounded=0;whiteSpace=wrap;html=1;fontSize=23;align=center;" vertex="1" parent="1">
                    <mxGeometry x="334" y="26" width="160" height="54" as="geometry"/>
                </mxCell>
                <mxCell id="49" style="edgeStyle=orthogonalEdgeStyle;rounded=0;orthogonalLoop=1;jettySize=auto;html=1;exitX=0.5;exitY=1;exitDx=0;exitDy=0;entryX=0.5;entryY=0;entryDx=0;entryDy=0;fontSize=23;endArrow=none;endFill=0;" edge="1" parent="1" source="10" target="41">
                    <mxGeometry relative="1" as="geometry">
                        <Array as="points">
                            <mxPoint x="1037" y="247"/>
                            <mxPoint x="867" y="247"/>
                        </Array>
                    </mxGeometry>
                </mxCell>
                <mxCell id="50" style="edgeStyle=orthogonalEdgeStyle;rounded=0;orthogonalLoop=1;jettySize=auto;html=1;exitX=0.5;exitY=1;exitDx=0;exitDy=0;entryX=0.5;entryY=0;entryDx=0;entryDy=0;fontSize=23;endArrow=none;endFill=0;" edge="1" parent="1" source="10" target="44">
                    <mxGeometry relative="1" as="geometry">
                        <Array as="points">
                            <mxPoint x="1037" y="247"/>
                            <mxPoint x="980" y="247"/>
                        </Array>
                    </mxGeometry>
                </mxCell>
                <mxCell id="51" style="edgeStyle=orthogonalEdgeStyle;rounded=0;orthogonalLoop=1;jettySize=auto;html=1;exitX=0.5;exitY=1;exitDx=0;exitDy=0;entryX=0.5;entryY=0;entryDx=0;entryDy=0;fontSize=23;endArrow=none;endFill=0;" edge="1" parent="1" source="10" target="42">
                    <mxGeometry relative="1" as="geometry">
                        <Array as="points">
                            <mxPoint x="1037" y="247"/>
                            <mxPoint x="1093" y="247"/>
                        </Array>
                    </mxGeometry>
                </mxCell>
                <mxCell id="52" style="edgeStyle=orthogonalEdgeStyle;rounded=0;orthogonalLoop=1;jettySize=auto;html=1;exitX=0.5;exitY=1;exitDx=0;exitDy=0;entryX=0.5;entryY=0;entryDx=0;entryDy=0;fontSize=23;endArrow=none;endFill=0;" edge="1" parent="1" source="10" target="43">
                    <mxGeometry relative="1" as="geometry">
                        <Array as="points">
                            <mxPoint x="1037" y="247"/>
                            <mxPoint x="1206" y="247"/>
                        </Array>
                    </mxGeometry>
                </mxCell>
                <mxCell id="10" value="社交模块" style="rounded=0;whiteSpace=wrap;html=1;fontSize=23;" vertex="1" parent="1">
                    <mxGeometry x="970" y="170" width="134" height="40" as="geometry"/>
                </mxCell>
                <mxCell id="45" style="edgeStyle=orthogonalEdgeStyle;rounded=0;orthogonalLoop=1;jettySize=auto;html=1;exitX=0.5;exitY=1;exitDx=0;exitDy=0;entryX=0.5;entryY=0;entryDx=0;entryDy=0;fontSize=23;endArrow=none;endFill=0;" edge="1" parent="1" source="8" target="34">
                    <mxGeometry relative="1" as="geometry">
                        <Array as="points">
                            <mxPoint x="603" y="247"/>
                            <mxPoint x="414" y="247"/>
                        </Array>
                    </mxGeometry>
                </mxCell>
                <mxCell id="46" style="edgeStyle=orthogonalEdgeStyle;rounded=0;orthogonalLoop=1;jettySize=auto;html=1;exitX=0.5;exitY=1;exitDx=0;exitDy=0;entryX=0.5;entryY=0;entryDx=0;entryDy=0;fontSize=23;endArrow=none;endFill=0;" edge="1" parent="1" source="8" target="37">
                    <mxGeometry relative="1" as="geometry">
                        <Array as="points">
                            <mxPoint x="603" y="247"/>
                            <mxPoint x="527" y="247"/>
                        </Array>
                    </mxGeometry>
                </mxCell>
                <mxCell id="47" style="edgeStyle=orthogonalEdgeStyle;rounded=0;orthogonalLoop=1;jettySize=auto;html=1;exitX=0.5;exitY=1;exitDx=0;exitDy=0;entryX=0.5;entryY=0;entryDx=0;entryDy=0;fontSize=23;endArrow=none;endFill=0;" edge="1" parent="1" source="8" target="35">
                    <mxGeometry relative="1" as="geometry">
                        <Array as="points">
                            <mxPoint x="603" y="247"/>
                            <mxPoint x="640" y="247"/>
                        </Array>
                    </mxGeometry>
                </mxCell>
                <mxCell id="48" style="edgeStyle=orthogonalEdgeStyle;rounded=0;orthogonalLoop=1;jettySize=auto;html=1;exitX=0.5;exitY=1;exitDx=0;exitDy=0;entryX=0.5;entryY=0;entryDx=0;entryDy=0;fontSize=23;endArrow=none;endFill=0;" edge="1" parent="1" source="8" target="36">
                    <mxGeometry relative="1" as="geometry">
                        <Array as="points">
                            <mxPoint x="603" y="247"/>
                            <mxPoint x="753" y="247"/>
                        </Array>
                    </mxGeometry>
                </mxCell>
                <mxCell id="8" value="歌单模块" style="rounded=0;whiteSpace=wrap;html=1;fontSize=23;" vertex="1" parent="1">
                    <mxGeometry x="536" y="160" width="134" height="40" as="geometry"/>
                </mxCell>
                <mxCell id="26" style="edgeStyle=orthogonalEdgeStyle;rounded=0;orthogonalLoop=1;jettySize=auto;html=1;exitX=0.5;exitY=1;exitDx=0;exitDy=0;entryX=0.5;entryY=0;entryDx=0;entryDy=0;fontSize=23;endArrow=none;endFill=0;" edge="1" parent="1" source="4" target="27">
                    <mxGeometry relative="1" as="geometry">
                        <mxPoint x="280" y="280" as="targetPoint"/>
                        <Array as="points">
                            <mxPoint x="169" y="247"/>
                            <mxPoint x="-39" y="247"/>
                        </Array>
                    </mxGeometry>
                </mxCell>
                <mxCell id="30" style="edgeStyle=orthogonalEdgeStyle;rounded=0;orthogonalLoop=1;jettySize=auto;html=1;exitX=0.5;exitY=1;exitDx=0;exitDy=0;entryX=0.5;entryY=0;entryDx=0;entryDy=0;fontSize=23;endArrow=none;endFill=0;" edge="1" parent="1" source="4" target="28">
                    <mxGeometry relative="1" as="geometry">
                        <Array as="points">
                            <mxPoint x="169" y="247"/>
                            <mxPoint x="74" y="247"/>
                        </Array>
                    </mxGeometry>
                </mxCell>
                <mxCell id="31" style="edgeStyle=orthogonalEdgeStyle;rounded=0;orthogonalLoop=1;jettySize=auto;html=1;exitX=0.5;exitY=1;exitDx=0;exitDy=0;entryX=0.5;entryY=0;entryDx=0;entryDy=0;fontSize=23;endArrow=none;endFill=0;" edge="1" parent="1" source="4" target="29">
                    <mxGeometry relative="1" as="geometry">
                        <Array as="points">
                            <mxPoint x="169" y="247"/>
                            <mxPoint x="188" y="247"/>
                        </Array>
                    </mxGeometry>
                </mxCell>
                <mxCell id="33" style="edgeStyle=orthogonalEdgeStyle;rounded=0;orthogonalLoop=1;jettySize=auto;html=1;exitX=0.5;exitY=1;exitDx=0;exitDy=0;entryX=0.5;entryY=0;entryDx=0;entryDy=0;fontSize=23;endArrow=none;endFill=0;" edge="1" parent="1" source="4" target="32">
                    <mxGeometry relative="1" as="geometry">
                        <Array as="points">
                            <mxPoint x="169" y="247"/>
                            <mxPoint x="301" y="247"/>
                        </Array>
                    </mxGeometry>
                </mxCell>
                <mxCell id="4" value="音乐模块" style="rounded=0;whiteSpace=wrap;html=1;fontSize=23;" vertex="1" parent="1">
                    <mxGeometry x="102" y="160" width="134" height="40" as="geometry"/>
                </mxCell>
                <mxCell id="21" value="" style="edgeStyle=orthogonalEdgeStyle;rounded=0;orthogonalLoop=1;jettySize=auto;html=1;exitX=0.5;exitY=1;exitDx=0;exitDy=0;fontSize=23;endArrow=none;endFill=0;" edge="1" parent="1" source="16" target="20">
                    <mxGeometry relative="1" as="geometry">
                        <Array as="points">
                            <mxPoint x="-265" y="247"/>
                            <mxPoint x="-378" y="247"/>
                        </Array>
                    </mxGeometry>
                </mxCell>
                <mxCell id="22" style="edgeStyle=orthogonalEdgeStyle;rounded=0;orthogonalLoop=1;jettySize=auto;html=1;exitX=0.5;exitY=1;exitDx=0;exitDy=0;entryX=0.5;entryY=0;entryDx=0;entryDy=0;fontSize=23;endArrow=none;endFill=0;" edge="1" parent="1" source="16" target="23">
                    <mxGeometry relative="1" as="geometry">
                        <mxPoint x="-243.16666666666652" y="290" as="targetPoint"/>
                    </mxGeometry>
                </mxCell>
                <mxCell id="25" style="edgeStyle=orthogonalEdgeStyle;rounded=0;orthogonalLoop=1;jettySize=auto;html=1;exitX=0.5;exitY=1;exitDx=0;exitDy=0;entryX=0.5;entryY=0;entryDx=0;entryDy=0;fontSize=23;endArrow=none;endFill=0;" edge="1" parent="1" source="16" target="24">
                    <mxGeometry relative="1" as="geometry">
                        <Array as="points">
                            <mxPoint x="-265" y="247"/>
                            <mxPoint x="-152" y="247"/>
                        </Array>
                    </mxGeometry>
                </mxCell>
                <mxCell id="16" value="用户模块" style="rounded=0;whiteSpace=wrap;html=1;fontSize=23;" vertex="1" parent="1">
                    <mxGeometry x="-332" y="160" width="134" height="40" as="geometry"/>
                </mxCell>
                <mxCell id="20" value="用户注册" style="rounded=0;whiteSpace=wrap;html=1;fontSize=23;" vertex="1" parent="1">
                    <mxGeometry x="-413" y="290" width="70" height="160" as="geometry"/>
                </mxCell>
                <mxCell id="23" value="用户登录" style="rounded=0;whiteSpace=wrap;html=1;fontSize=23;" vertex="1" parent="1">
                    <mxGeometry x="-300" y="290" width="70" height="160" as="geometry"/>
                </mxCell>
                <mxCell id="24" value="用户信息&lt;br style=&quot;font-size: 23px;&quot;&gt;编辑" style="rounded=0;whiteSpace=wrap;html=1;fontSize=23;" vertex="1" parent="1">
                    <mxGeometry x="-187" y="290" width="70" height="160" as="geometry"/>
                </mxCell>
                <mxCell id="27" value="歌曲播放" style="rounded=0;whiteSpace=wrap;html=1;fontSize=23;" vertex="1" parent="1">
                    <mxGeometry x="-74" y="290" width="70" height="160" as="geometry"/>
                </mxCell>
                <mxCell id="28" value="歌曲收藏" style="rounded=0;whiteSpace=wrap;html=1;fontSize=23;" vertex="1" parent="1">
                    <mxGeometry x="39" y="290" width="70" height="160" as="geometry"/>
                </mxCell>
                <mxCell id="29" value="歌曲添加到歌单" style="rounded=0;whiteSpace=wrap;html=1;fontSize=23;" vertex="1" parent="1">
                    <mxGeometry x="153" y="290" width="70" height="160" as="geometry"/>
                </mxCell>
                <mxCell id="32" value="歌曲从&lt;br style=&quot;font-size: 23px;&quot;&gt;歌单中删除" style="rounded=0;whiteSpace=wrap;html=1;fontSize=23;" vertex="1" parent="1">
                    <mxGeometry x="266" y="290" width="70" height="160" as="geometry"/>
                </mxCell>
                <mxCell id="34" value="创建歌单" style="rounded=0;whiteSpace=wrap;html=1;fontSize=23;" vertex="1" parent="1">
                    <mxGeometry x="379" y="290" width="70" height="160" as="geometry"/>
                </mxCell>
                <mxCell id="35" value="删除歌单" style="rounded=0;whiteSpace=wrap;html=1;fontSize=23;" vertex="1" parent="1">
                    <mxGeometry x="605" y="290" width="70" height="160" as="geometry"/>
                </mxCell>
                <mxCell id="36" value="取消收藏&lt;br style=&quot;font-size: 23px;&quot;&gt;歌单" style="rounded=0;whiteSpace=wrap;html=1;fontSize=23;" vertex="1" parent="1">
                    <mxGeometry x="718" y="290" width="70" height="160" as="geometry"/>
                </mxCell>
                <mxCell id="37" value="编辑歌单&lt;br style=&quot;font-size: 23px;&quot;&gt;信息" style="rounded=0;whiteSpace=wrap;html=1;fontSize=23;" vertex="1" parent="1">
                    <mxGeometry x="492" y="290" width="70" height="160" as="geometry"/>
                </mxCell>
                <mxCell id="41" value="发布动态" style="rounded=0;whiteSpace=wrap;html=1;fontSize=23;" vertex="1" parent="1">
                    <mxGeometry x="832" y="290" width="70" height="160" as="geometry"/>
                </mxCell>
                <mxCell id="42" value="评论歌单" style="rounded=0;whiteSpace=wrap;html=1;fontSize=23;" vertex="1" parent="1">
                    <mxGeometry x="1058" y="290" width="70" height="160" as="geometry"/>
                </mxCell>
                <mxCell id="43" value="回复评论" style="rounded=0;whiteSpace=wrap;html=1;fontSize=23;" vertex="1" parent="1">
                    <mxGeometry x="1171" y="290" width="70" height="160" as="geometry"/>
                </mxCell>
                <mxCell id="44" value="评论歌曲" style="rounded=0;whiteSpace=wrap;html=1;fontSize=23;" vertex="1" parent="1">
                    <mxGeometry x="945" y="290" width="70" height="160" as="geometry"/>
                </mxCell>
            </root>
        </mxGraphModel>
    </diagram>
</mxfile>